<?xml version="1.0" encoding="UTF-8"?>
<svg version="1.1" xmlns="http://www.w3.org/2000/svg" width="128" height="128">
<path d="M0 0 C42.24 0 84.48 0 128 0 C128 42.24 128 84.48 128 128 C85.76 128 43.52 128 0 128 C0 85.76 0 43.52 0 0 Z " fill="#F8E7CB" transform="translate(0,0)"/>
<path d="M0 0 C2.67382812 -0.37231445 2.67382812 -0.37231445 6.03125 -0.36328125 C7.23394531 -0.36263672 8.43664062 -0.36199219 9.67578125 -0.36132812 C11.56876953 -0.3371582 11.56876953 -0.3371582 13.5 -0.3125 C15.39298828 -0.31733398 15.39298828 -0.31733398 17.32421875 -0.32226562 C26.73319997 -0.26680003 26.73319997 -0.26680003 29 2 C29.212112 4.76160397 29.30397075 7.42038052 29.30078125 10.18359375 C29.30506638 10.9949025 29.3093515 11.80621124 29.31376648 12.6421051 C29.319514 14.35945705 29.32000694 16.07683335 29.31567383 17.79418945 C29.3125165 20.4237622 29.33595748 23.05220731 29.36132812 25.68164062 C29.36360132 27.34895691 29.36430452 29.01627623 29.36328125 30.68359375 C29.372491 31.47116562 29.38170074 32.25873749 29.39118958 33.07017517 C29.34588186 38.40985577 29.34588186 38.40985577 27.83081055 40.99487305 C25.26169743 42.40533294 23.2686373 42.38866305 20.34375 42.3984375 C19.23902344 42.40230469 18.13429688 42.40617187 16.99609375 42.41015625 C15.84238281 42.39855469 14.68867187 42.38695312 13.5 42.375 C12.34628906 42.38660156 11.19257812 42.39820313 10.00390625 42.41015625 C8.89917969 42.40628906 7.79445313 42.40242188 6.65625 42.3984375 C5.64369141 42.39505371 4.63113281 42.39166992 3.58789062 42.38818359 C1 42 1 42 -0.83081055 40.97900391 C-2.70038585 37.81450663 -2.40640345 34.50799023 -2.36328125 30.9375 C-2.36377975 30.14980225 -2.36427826 29.36210449 -2.36479187 28.55053711 C-2.36245282 26.88620479 -2.35273416 25.22186884 -2.33618164 23.55761719 C-2.31258744 21.00944401 -2.31562186 18.46231716 -2.32226562 15.9140625 C-2.31668875 14.29686876 -2.30957881 12.67967943 -2.30078125 11.0625 C-2.30169266 10.29993896 -2.30260406 9.53737793 -2.30354309 8.75170898 C-2.25285761 4.97190586 -2.14779641 3.22169461 0 0 Z " fill="#596870" transform="translate(51,30)"/>
<path d="M0 0 C1.17111328 -0.01224609 2.34222656 -0.02449219 3.54882812 -0.03710938 C4.66580078 -0.03904297 5.78277344 -0.04097656 6.93359375 -0.04296875 C7.96411865 -0.04707764 8.99464355 -0.05118652 10.05639648 -0.05541992 C12.5625 0.1875 12.5625 0.1875 14.5625 2.1875 C14.76215373 4.81690196 14.8423411 7.33870163 14.828125 9.96875 C14.83003845 10.73803833 14.8319519 11.50732666 14.83392334 12.29992676 C14.83528508 13.9273308 14.83158939 15.5547457 14.82324219 17.18212891 C14.81254221 19.67765631 14.82313751 22.17246382 14.8359375 24.66796875 C14.8346159 26.24739743 14.8320535 27.82682566 14.828125 29.40625 C14.83217346 30.1552356 14.83622192 30.90422119 14.84039307 31.67590332 C14.79242243 36.95757757 14.79242243 36.95757757 12.5625 39.1875 C11.2425 39.1875 9.9225 39.1875 8.5625 39.1875 C8.8925 37.8675 9.2225 36.5475 9.5625 35.1875 C10.2225 35.1875 10.8825 35.1875 11.5625 35.1875 C11.5625 33.8675 11.5625 32.5475 11.5625 31.1875 C10.9025 31.1875 10.2425 31.1875 9.5625 31.1875 C9.2325 32.1775 8.9025 33.1675 8.5625 34.1875 C8.5625 32.5375 8.5625 30.8875 8.5625 29.1875 C7.9025 29.1875 7.2425 29.1875 6.5625 29.1875 C6.2325 30.1775 5.9025 31.1675 5.5625 32.1875 C5.5625 31.5275 5.5625 30.8675 5.5625 30.1875 C4.9025 30.1875 4.2425 30.1875 3.5625 30.1875 C3.5625 31.1775 3.5625 32.1675 3.5625 33.1875 C4.5525 33.1875 5.5425 33.1875 6.5625 33.1875 C6.5625 35.1675 6.5625 37.1475 6.5625 39.1875 C4.5625 38.1875 4.5625 38.1875 3.5625 37.1875 C2.5725 37.6825 2.5725 37.6825 1.5625 38.1875 C1.5625 34.2275 1.5625 30.2675 1.5625 26.1875 C2.67625 25.754375 3.79 25.32125 4.9375 24.875 C8.73762334 23.48838881 8.73762334 23.48838881 10.5625 20.1875 C10.95263716 18.1978005 11.29452649 16.19730131 11.5625 14.1875 C10.5725 13.8575 9.5825 13.5275 8.5625 13.1875 C8.02625 12.506875 7.49 11.82625 6.9375 11.125 C3.81595 8.57847236 1.692903 8.56568788 -2.25 8.71484375 C-5.66429125 9.45257454 -7.27711319 11.56884933 -9.4375 14.1875 C-10.0975 14.1875 -10.7575 14.1875 -11.4375 14.1875 C-10.61004147 19.95158178 -10.61004147 19.95158178 -7 24.125 C-5.17328034 24.88242034 -3.31354138 25.56215287 -1.4375 26.1875 C-1.4375 30.1475 -1.4375 34.1075 -1.4375 38.1875 C-1.9325 36.7025 -1.9325 36.7025 -2.4375 35.1875 C-3.0975 35.1875 -3.7575 35.1875 -4.4375 35.1875 C-4.4375 36.5075 -4.4375 37.8275 -4.4375 39.1875 C-5.0975 39.1875 -5.7575 39.1875 -6.4375 39.1875 C-6.80673077 33.64903846 -6.80673077 33.64903846 -4.9375 31.3125 C-4.4425 30.94125 -3.9475 30.57 -3.4375 30.1875 C-4.0975 30.1875 -4.7575 30.1875 -5.4375 30.1875 C-5.7675 30.8475 -6.0975 31.5075 -6.4375 32.1875 C-6.4375 31.1975 -6.4375 30.2075 -6.4375 29.1875 C-7.0975 29.1875 -7.7575 29.1875 -8.4375 29.1875 C-8.4375 30.8375 -8.4375 32.4875 -8.4375 34.1875 C-8.9325 32.7025 -8.9325 32.7025 -9.4375 31.1875 C-10.0975 31.1875 -10.7575 31.1875 -11.4375 31.1875 C-11.1075 31.950625 -10.7775 32.71375 -10.4375 33.5 C-9.4375 36.1875 -9.4375 36.1875 -9.4375 39.1875 C-10.7575 38.8575 -12.0775 38.5275 -13.4375 38.1875 C-13.46214928 32.93644558 -13.48033568 27.68542455 -13.49243164 22.43432617 C-13.49747218 20.64655979 -13.50430454 18.85879755 -13.51293945 17.07104492 C-13.5250173 14.50698832 -13.53073094 11.94298603 -13.53515625 9.37890625 C-13.54031754 8.5747377 -13.54547882 7.77056915 -13.55079651 6.94203186 C-13.55099215 5.02348285 -13.49951983 3.10504632 -13.4375 1.1875 C-10.84794843 -1.40205157 -3.48572397 0.00191208 0 0 Z " fill="#44BBCB" transform="translate(64.4375,30.8125)"/>
<path d="M0 0 C2.93033456 1.55607182 5.03647257 3.32301695 7 6 C7.84299027 9.75513848 7.24367336 11.4273676 5.75 14.9375 C1.69806702 17.97644973 -1.64957855 17.01733863 -6.515625 16.39453125 C-7.33546875 16.26433594 -8.1553125 16.13414063 -9 16 C-9 15.34 -9 14.68 -9 14 C-10.32 13.34 -11.64 12.68 -13 12 C-13 11.01 -13 10.02 -13 9 C-11.17662109 9.01740234 -11.17662109 9.01740234 -9.31640625 9.03515625 C-7.73177236 9.04453278 -6.14713682 9.05363313 -4.5625 9.0625 C-3.35883789 9.07506836 -3.35883789 9.07506836 -2.13085938 9.08789062 C-0.08704779 9.0965143 1.95683902 9.0522815 4 9 C4.33 8.67 4.66 8.34 5 8 C-0.94 8 -6.88 8 -13 8 C-13 3 -13 3 -11.5625 1.1875 C-7.65388127 -0.62381112 -4.21954817 -0.87081279 0 0 Z " fill="#54524C" transform="translate(69,39)"/>
<path d="M0 0 C0.33 0 0.66 0 1 0 C1.0493651 4.94790177 1.08570269 9.89566083 1.10986328 14.84375 C1.11993317 16.52769466 1.13358988 18.21162179 1.15087891 19.89550781 C1.17508426 22.31319501 1.18647296 24.73065143 1.1953125 27.1484375 C1.20563507 27.9036972 1.21595764 28.65895691 1.22659302 29.43710327 C1.22699318 31.2929398 1.12222716 33.1481928 1 35 C0.34 35.66 -0.32 36.32 -1 37 C-2.32 37 -3.64 37 -5 37 C-4.67 35.68 -4.34 34.36 -4 33 C-3.34 33 -2.68 33 -2 33 C-2 31.68 -2 30.36 -2 29 C-2.66 29 -3.32 29 -4 29 C-4.33 29.99 -4.66 30.98 -5 32 C-5 30.35 -5 28.7 -5 27 C-5.66 27 -6.32 27 -7 27 C-7.33 27.99 -7.66 28.98 -8 30 C-8 29.34 -8 28.68 -8 28 C-8.66 28 -9.32 28 -10 28 C-10 28.99 -10 29.98 -10 31 C-9.01 31 -8.02 31 -7 31 C-7 32.98 -7 34.96 -7 37 C-9 36 -9 36 -10 35 C-10.99 35.495 -10.99 35.495 -12 36 C-12 32.04 -12 28.08 -12 24 C-10.88625 23.566875 -9.7725 23.13375 -8.625 22.6875 C-4.82487666 21.30088881 -4.82487666 21.30088881 -3 18 C-2.61500109 16.34450469 -2.27206865 14.6777567 -2 13 C-1.67 13 -1.34 13 -1 13 C-0.67 8.71 -0.34 4.42 0 0 Z " fill="#47AEBD" transform="translate(78,33)"/>
<path d="M0 0 C0.33 0 0.66 0 1 0 C1.226875 1.093125 1.45375 2.18625 1.6875 3.3125 C2.65479615 7.08511695 2.65479615 7.08511695 5.4375 8.875 C8.04009296 10.06436943 8.04009296 10.06436943 11 11 C11 14.96 11 18.92 11 23 C10.67 22.01 10.34 21.02 10 20 C9.34 20 8.68 20 8 20 C8 21.32 8 22.64 8 24 C7.34 24 6.68 24 6 24 C5.63076923 18.46153846 5.63076923 18.46153846 7.5 16.125 C7.995 15.75375 8.49 15.3825 9 15 C8.34 15 7.68 15 7 15 C6.67 15.66 6.34 16.32 6 17 C6 16.01 6 15.02 6 14 C5.34 14 4.68 14 4 14 C4 15.65 4 17.3 4 19 C3.67 18.01 3.34 17.02 3 16 C2.34 16 1.68 16 1 16 C1.33 16.763125 1.66 17.52625 2 18.3125 C3 21 3 21 3 24 C1.68 23.67 0.36 23.34 -1 23 C-1.02902429 19.72918529 -1.04680684 16.4584037 -1.0625 13.1875 C-1.07087891 12.25873047 -1.07925781 11.32996094 -1.08789062 10.37304688 C-1.09111328 9.48037109 -1.09433594 8.58769531 -1.09765625 7.66796875 C-1.10289307 6.84578857 -1.10812988 6.0236084 -1.11352539 5.17651367 C-1 3 -1 3 0 0 Z " fill="#46AFBF" transform="translate(52,46)"/>
<path d="M0 0 C0.66 0 1.32 0 2 0 C2.33 11.88 2.66 23.76 3 36 C3.99 36.33 4.98 36.66 6 37 C5.505 36.13375 5.505 36.13375 5 35.25 C4 33 4 33 4 29 C4.66 29 5.32 29 6 29 C6.33 28.34 6.66 27.68 7 27 C8.65 27.33 10.3 27.66 12 28 C11.67 28.99 11.34 29.98 11 31 C10.34 31 9.68 31 9 31 C9 32.98 9 34.96 9 37 C9.66 37 10.32 37 11 37 C11 35.68 11 34.36 11 33 C11.66 33 12.32 33 13 33 C13.33 34.32 13.66 35.64 14 37 C11.52224905 38.23887548 9.76346293 38.16741669 7 38.1875 C6.113125 38.20167969 5.22625 38.21585938 4.3125 38.23046875 C2 38 2 38 0 36 C-0.17517747 33.27514272 -0.23149133 30.65340638 -0.1953125 27.9296875 C-0.1924826 27.13345978 -0.18965271 26.33723206 -0.18673706 25.51687622 C-0.1755264 22.96943237 -0.15042062 20.42233789 -0.125 17.875 C-0.11497133 16.14974465 -0.10584528 14.42448381 -0.09765625 12.69921875 C-0.07558422 8.46601086 -0.04104867 4.2330647 0 0 Z " fill="#476D7A" transform="translate(49,33)"/>
<path d="M0 0 C4.29 0 8.58 0 13 0 C13.33 3.3 13.66 6.6 14 10 C13.01 10 12.02 10 11 10 C11 7.03 11 4.06 11 1 C10.34 1 9.68 1 9 1 C9.33 3.97 9.66 6.94 10 10 C7.03 10 4.06 10 1 10 C0.67 6.7 0.34 3.4 0 0 Z " fill="#F58967" transform="translate(61,81)"/>
<path d="M0 0 C0.33 0.99 0.66 1.98 1 3 C6.94 3 12.88 3 19 3 C18.67 4.32 18.34 5.64 18 7 C18 6.01 18 5.02 18 4 C12.39 4 6.78 4 1 4 C2.5 8 2.5 8 5 9 C5 9.66 5 10.32 5 11 C7.97 11 10.94 11 14 11 C14 11.66 14 12.32 14 13 C13.01 13 12.02 13 11 13 C11 16.96 11 20.92 11 25 C10.01 25 9.02 25 8 25 C8 21.04 8 17.08 8 13 C7.0925 12.938125 6.185 12.87625 5.25 12.8125 C2 12 2 12 -0.375 9.8125 C-2.24249951 6.58028931 -2.34155908 4.67176009 -2 1 C-1.34 0.67 -0.68 0.34 0 0 Z " fill="#4F535D" transform="translate(55,44)"/>
<path d="M0 0 C5.61 0 11.22 0 17 0 C17 0.99 17 1.98 17 3 C16.34 3 15.68 3 15 3 C15 3.66 15 4.32 15 5 C11.56042054 6.71978973 7.76863616 6.38154931 4 6 C1.4375 4.6875 1.4375 4.6875 0 3 C0 2.01 0 1.02 0 0 Z " fill="#EF4C26" transform="translate(56,48)"/>
<path d="M0 0 C0.99 0 1.98 0 3 0 C5.75532834 4.79187538 6.63176357 8.56851267 7 14 C6 15 6 15 3 15.125 C0 15 0 15 -1 14 C-1.27314815 8.26388889 -1.27314815 8.26388889 -1 6 C-0.34 5.34 0.32 4.68 1 4 C0.34 3.01 -0.32 2.02 -1 1 C-0.67 0.67 -0.34 0.34 0 0 Z " fill="#F35D37" transform="translate(43,77)"/>
<path d="M0 0 C0.99 0.33 1.98 0.66 3 1 C3.33 3.97 3.66 6.94 4 10 C2.35 10.66 0.7 11.32 -1 12 C-3.32528287 9.67471713 -3.29511025 9.15334102 -3.3125 6 C-3.32925781 5.29875 -3.34601562 4.5975 -3.36328125 3.875 C-3.24339844 3.25625 -3.12351562 2.6375 -3 2 C-2.01 1.34 -1.02 0.68 0 0 Z " fill="#F5815E" transform="translate(35,82)"/>
<path d="M0 0 C2.125 0.375 2.125 0.375 4 1 C4.9765625 7.0546875 4.9765625 7.0546875 5 9 C4.34 9.66 3.68 10.32 3 11 C0.375 10.625 0.375 10.625 -2 10 C-2.1953125 3.9453125 -2.1953125 3.9453125 -2 2 C-1.34 1.34 -0.68 0.68 0 0 Z " fill="#F58B69" transform="translate(24,84)"/>
<path d="M0 0 C2.5 0.125 2.5 0.125 3.5 1.125 C3.4140625 2.9375 3.4140625 2.9375 3.125 5.125 C3.03476563 5.846875 2.94453125 6.56875 2.8515625 7.3125 C2.5 9.125 2.5 9.125 1.5 10.125 C-0.16617115 10.16563832 -1.83388095 10.167721 -3.5 10.125 C-3.52689216 8.64593108 -3.54634621 7.16672517 -3.5625 5.6875 C-3.57410156 4.86378906 -3.58570312 4.04007812 -3.59765625 3.19140625 C-3.4527802 0.12582896 -3.07795841 0.15389792 0 0 Z " fill="#F35C36" transform="translate(102.5,83.875)"/>
<path d="M0 0 C2.31 0.33 4.62 0.66 7 1 C6.67 4.63 6.34 8.26 6 12 C5.01 12 4.02 12 3 12 C3.33 9.03 3.66 6.06 4 3 C3.34 3 2.68 3 2 3 C2 5.64 2 8.28 2 11 C1.01 11 0.02 11 -1 11 C-0.67 7.37 -0.34 3.74 0 0 Z " fill="#F3623D" transform="translate(109,85)"/>
<path d="M0 0 C0.33 0.66 0.66 1.32 1 2 C1.66 2 2.32 2 3 2 C3 3.32 3 4.64 3 6 C2.01 6.495 2.01 6.495 1 7 C1 8.32 1 9.64 1 11 C-1.31 11 -3.62 11 -6 11 C-6 8 -6 8 -4 6 C-3.34 7.32 -2.68 8.64 -2 10 C-2 8.02 -2 6.04 -2 4 C-2.99 4 -3.98 4 -5 4 C-5 3.01 -5 2.02 -5 1 C-2 0 -2 0 0 0 Z " fill="#233145" transform="translate(73,60)"/>
<path d="M0 0 C1.32 0.66 2.64 1.32 4 2 C4 2.66 4 3.32 4 4 C3.01 4 2.02 4 1 4 C0.67 4.99 0.34 5.98 0 7 C0.99 7.33 1.98 7.66 3 8 C2.34 8 1.68 8 1 8 C1.66 9.98 2.32 11.96 3 14 C1.02 14.99 1.02 14.99 -1 16 C-1.66 11.38 -2.32 6.76 -3 2 C-2.01 1.34 -1.02 0.68 0 0 Z " fill="#F3613C" transform="translate(15,82)"/>
<path d="M0 0 C1.65 0.33 3.3 0.66 5 1 C4.67 1.99 4.34 2.98 4 4 C3.34 4 2.68 4 2 4 C2 5.98 2 7.96 2 10 C2.66 10 3.32 10 4 10 C4 8.68 4 7.36 4 6 C4.66 6 5.32 6 6 6 C6.33 7.32 6.66 8.64 7 10 C4.69 10.33 2.38 10.66 0 11 C0 9.35 0 7.7 0 6 C-0.99 6 -1.98 6 -3 6 C-3 4.68 -3 3.36 -3 2 C-2.34 2 -1.68 2 -1 2 C-0.67 1.34 -0.34 0.68 0 0 Z " fill="#212D42" transform="translate(56,60)"/>
<path d="M0 0 C0.33 0 0.66 0 1 0 C1.06058594 0.92683594 1.12117188 1.85367188 1.18359375 2.80859375 C1.26738281 4.00613281 1.35117188 5.20367187 1.4375 6.4375 C1.51871094 7.63246094 1.59992188 8.82742187 1.68359375 10.05859375 C1.67656114 12.88570244 1.67656114 12.88570244 3 14 C4.68183948 14.23287008 6.3712416 14.41264166 8.0625 14.5625 C8.98160156 14.64628906 9.90070313 14.73007813 10.84765625 14.81640625 C11.55792969 14.87699219 12.26820312 14.93757813 13 15 C13 15.33 13 15.66 13 16 C4.75 16 -3.5 16 -12 16 C-12 15.67 -12 15.34 -12 15 C-11.37351563 14.93941406 -10.74703125 14.87882812 -10.1015625 14.81640625 C-9.28429688 14.73261719 -8.46703125 14.64882812 -7.625 14.5625 C-6.81289063 14.48128906 -6.00078125 14.40007812 -5.1640625 14.31640625 C-2.95727195 14.10909886 -2.95727195 14.10909886 -1 13 C-0.53045739 9.95418731 -0.53045739 9.95418731 -0.375 6.4375 C-0.30023438 5.23996094 -0.22546875 4.04242188 -0.1484375 2.80859375 C-0.09945312 1.88175781 -0.05046875 0.95492187 0 0 Z " fill="#ABA499" transform="translate(64,56)"/>
<path d="M0 0 C2 2 2 2 2 6 C0.02 6 -1.96 6 -4 6 C-3.34 4.68 -2.68 3.36 -2 2 C-2.66 1.67 -3.32 1.34 -4 1 C-4.33 2.32 -4.66 3.64 -5 5 C-5.99 5 -6.98 5 -8 5 C-8.33 4.01 -8.66 3.02 -9 2 C-5.88401212 0.15348866 -3.61754103 -0.38079379 0 0 Z " fill="#A68324" transform="translate(71,40)"/>
<path d="M0 0 C0 5.94 0 11.88 0 18 C-0.99 17.67 -1.98 17.34 -3 17 C-2.67 12.38 -2.34 7.76 -2 3 C-2.66 2.67 -3.32 2.34 -4 2 C-1 0 -1 0 0 0 Z " fill="#F3532D" transform="translate(54,77)"/>
<path d="M0 0 C0.66 0.33 1.32 0.66 2 1 C1.39928058 6.40647482 1.39928058 6.40647482 -0.15625 8.71875 C-2.90387169 10.62811423 -4.92465977 10.07342734 -8.1875 9.6875 C-9.81751953 9.50767578 -9.81751953 9.50767578 -11.48046875 9.32421875 C-12.31191406 9.21722656 -13.14335938 9.11023437 -14 9 C-14 8.67 -14 8.34 -14 8 C-8.555 7.505 -8.555 7.505 -3 7 C-3 6.34 -3 5.68 -3 5 C-2.01 5 -1.02 5 0 5 C0 3.35 0 1.7 0 0 Z " fill="#675C60" transform="translate(74,46)"/>
<path d="M0 0 C-0.33 1.32 -0.66 2.64 -1 4 C-1.66 3.34 -2.32 2.68 -3 2 C-3.33 3.98 -3.66 5.96 -4 8 C-3.34 8 -2.68 8 -2 8 C-2 8.66 -2 9.32 -2 10 C-3.32 10 -4.64 10 -6 10 C-6 6.7 -6 3.4 -6 0 C-3.50907189 -1.24546405 -2.58919267 -0.7767578 0 0 Z " fill="#F35A34" transform="translate(84,82)"/>
<path d="M0 0 C0.66 0.33 1.32 0.66 2 1 C1.67 4.63 1.34 8.26 1 12 C0.01 12 -0.98 12 -2 12 C-2.05395478 10.37536158 -2.09277195 8.75021459 -2.125 7.125 C-2.14820312 6.22007813 -2.17140625 5.31515625 -2.1953125 4.3828125 C-2 2 -2 2 0 0 Z " fill="#F46A45" transform="translate(89,80)"/>
<path d="M0 0 C0.66 0 1.32 0 2 0 C2.33 1.32 2.66 2.64 3 4 C3.66 2.68 4.32 1.36 5 0 C5.33 2.64 5.66 5.28 6 8 C4.35 8.33 2.7 8.66 1 9 C0.67 6.03 0.34 3.06 0 0 Z " fill="#F69E7D" transform="translate(44,83)"/>
<path d="M0 0 C1.11375 0.185625 1.11375 0.185625 2.25 0.375 C2.25 1.365 2.25 2.355 2.25 3.375 C1.59 3.375 0.93 3.375 0.25 3.375 C0.25 4.035 0.25 4.695 0.25 5.375 C-2.06 5.705 -4.37 6.035 -6.75 6.375 C-3.42692308 0.46730769 -3.42692308 0.46730769 0 0 Z " fill="#FA8F7A" transform="translate(70.75,47.625)"/>
<path d="M0 0 C2.0625 0.4375 2.0625 0.4375 4 1 C4 2.65 4 4.3 4 6 C2.02 6 0.04 6 -2 6 C-1.125 1.125 -1.125 1.125 0 0 Z " fill="#876D30" transform="translate(58,40)"/>
<path d="M0 0 C2.0625 0.4375 2.0625 0.4375 4 1 C4 3.31 4 5.62 4 8 C3.34 7.67 2.68 7.34 2 7 C2 5.35 2 3.7 2 2 C1.34 2 0.68 2 0 2 C0 3.98 0 5.96 0 8 C-2 5 -2 5 -1.6875 2.875 C-1 1 -1 1 0 0 Z " fill="#F3542E" transform="translate(24,84)"/>
<path d="M0 0 C1.32 0 2.64 0 4 0 C3.5020163 3.73487777 3.12508244 5.81237635 1 9 C0.45627049 5.94152152 0 3.11227195 0 0 Z " fill="#F59B7A" transform="translate(100,84)"/>
<path d="M0 0 C0.99 0 1.98 0 3 0 C3.33 3.3 3.66 6.6 4 10 C3.01 10 2.02 10 1 10 C0.67 6.7 0.34 3.4 0 0 Z " fill="#F3512A" transform="translate(57,81)"/>
<path d="M0 0 C0.99 0 1.98 0 3 0 C3.33 3.3 3.66 6.6 4 10 C3.01 10 2.02 10 1 10 C0.67 6.7 0.34 3.4 0 0 Z " fill="#F34E28" transform="translate(61,81)"/>
<path d="M0 0 C0.99 0 1.98 0 3 0 C2.67 3.3 2.34 6.6 2 10 C1.34 10 0.68 10 0 10 C0 6.7 0 3.4 0 0 Z " fill="#F3552F" transform="translate(93,83)"/>
<path d="M0 0 C0.66 0 1.32 0 2 0 C2.33 2.97 2.66 5.94 3 9 C2.01 8.67 1.02 8.34 0 8 C0 5.36 0 2.72 0 0 Z " fill="#F3512A" transform="translate(42,83)"/>
<path d="M0 0 C4 4.625 4 4.625 4 8 C2.68 7.67 1.36 7.34 0 7 C0 4.69 0 2.38 0 0 Z " fill="#44BCCD" transform="translate(51,62)"/>
<path d="M0 0 C0.66 0 1.32 0 2 0 C2.33 2.64 2.66 5.28 3 8 C2.01 8 1.02 8 0 8 C0 5.36 0 2.72 0 0 Z " fill="#F3552F" transform="translate(32,84)"/>
</svg>
